<svg xmlns="http://www.w3.org/2000/svg" width="640" height="160" viewBox="0 0 640 160" fill="none" role="img" aria-label="Ligate Chain">
  <title>Ligate Chain</title>
  <g transform="translate(20 24)">
    <path d="M123.03 55.9332L115.623 68.7795L108.216 81.6154L100.819 94.4513L93.4121 107.277H34.2075L26.8004 94.4513L19.4037 81.6154H78.6187L86.0154 68.7795L93.4121 55.9332H123.03Z" stroke="#A7D28C" stroke-width="9.2" stroke-linejoin="round"/>
    <path d="M49.0113 30.2718L41.6042 43.0973L34.2075 55.9332L26.8004 68.7795L19.4037 81.6154L11.9967 68.7795L4.59998 55.9332L11.9967 43.0973L19.4037 30.2718H49.0113Z" stroke="#A7D28C" stroke-width="9.2" stroke-linejoin="round"/>
    <path d="M108.216 30.2718L100.819 43.0973L93.4121 55.9332H63.8046L71.2221 43.0973L78.6188 30.2718H49.0112L56.4079 17.4359L63.8046 4.60001H93.4121L100.819 17.4359L108.216 30.2718Z" stroke="#A7D28C" stroke-width="9.2" stroke-linejoin="round"/>
  </g>
  <g fill="#A7D28C">
    <path transform="translate(184.000 98) scale(0.072000 -0.072000)" d="M73 0V700H181V98H518V0Z"/>
    <path transform="translate(221.668 98) scale(0.072000 -0.072000)" d="M76 0V493H179V0ZM128 560Q98 560 77.5 579.5Q57 599 57 630Q57 661 77.5 680.5Q98 700 128 700Q159 700 179.0 680.5Q199 661 199 630Q199 599 179.0 579.5Q159 560 128 560Z"/>
    <path transform="translate(238.600 98) scale(0.072000 -0.072000)" d="M52 244V259Q52 337 83.5 392.0Q115 447 167.0 477.0Q219 507 281 507Q353 507 391.5 480.0Q430 453 448 422H464V493H564V-101Q564 -146 537.5 -173.0Q511 -200 465 -200H133V-110H433Q462 -110 462 -80V77H446Q435 59 415.0 40.0Q395 21 362.5 9.0Q330 -3 281 -3Q219 -3 166.5 26.5Q114 56 83.0 111.5Q52 167 52 244ZM309 87Q376 87 419.5 129.5Q463 172 463 247V256Q463 333 420.0 374.5Q377 416 309 416Q243 416 199.5 374.5Q156 333 156 256V247Q156 172 199.5 129.5Q243 87 309 87Z"/>
    <path transform="translate(283.180 98) scale(0.072000 -0.072000)" d="M229 -14Q176 -14 134.5 4.0Q93 22 68.5 57.0Q44 92 44 142Q44 193 68.5 226.5Q93 260 135.5 277.0Q178 294 232 294H382V326Q382 369 356.0 395.0Q330 421 276 421Q223 421 195.0 396.0Q167 371 158 331L62 362Q74 402 100.5 434.5Q127 467 171.0 487.0Q215 507 277 507Q373 507 428.0 458.0Q483 409 483 319V116Q483 86 511 86H553V0H476Q441 0 419.0 18.0Q397 36 397 67V70H382Q374 55 358.0 35.0Q342 15 311.0 0.5Q280 -14 229 -14ZM244 71Q306 71 344.0 106.5Q382 142 382 204V214H238Q197 214 172.0 196.5Q147 179 147 145Q147 111 173.0 91.0Q199 71 244 71Z"/>
    <path transform="translate(323.224 98) scale(0.072000 -0.072000)" d="M261 0Q216 0 189.5 27.0Q163 54 163 99V406H27V493H163V656H266V493H413V406H266V117Q266 87 294 87H397V0Z"/>
    <path transform="translate(354.700 98) scale(0.072000 -0.072000)" d="M302 -14Q227 -14 171.0 17.5Q115 49 83.5 106.5Q52 164 52 240V252Q52 329 83.0 386.5Q114 444 169.5 475.5Q225 507 298 507Q369 507 422.5 475.5Q476 444 506.0 388.0Q536 332 536 257V218H157Q159 153 200.5 114.5Q242 76 304 76Q362 76 391.5 102.0Q421 128 437 162L522 118Q508 90 481.5 59.0Q455 28 412.0 7.0Q369 -14 302 -14ZM158 297H431Q427 353 391.0 384.5Q355 416 297 416Q239 416 202.5 384.5Q166 353 158 297Z"/>
    <path transform="translate(412.108 98) scale(0.072000 -0.072000)" d="M333 -14Q205 -14 130.0 58.5Q55 131 55 268V432Q55 569 130.0 641.5Q205 714 333 714Q459 714 527.5 644.0Q596 574 596 453V447H489V456Q489 527 450.5 572.0Q412 617 333 617Q253 617 208.0 568.5Q163 520 163 434V266Q163 181 208.0 132.0Q253 83 333 83Q412 83 450.5 128.5Q489 174 489 244V261H596V247Q596 126 527.5 56.0Q459 -14 333 -14Z"/>
    <path transform="translate(456.904 98) scale(0.072000 -0.072000)" d="M76 0V700H179V423H195Q205 442 223.5 460.0Q242 478 272.5 489.5Q303 501 350 501Q406 501 449.5 476.0Q493 451 518.0 405.5Q543 360 543 296V0H440V288Q440 352 408.0 382.5Q376 413 320 413Q256 413 217.5 371.0Q179 329 179 249V0Z"/>
    <path transform="translate(499.684 98) scale(0.072000 -0.072000)" d="M229 -14Q176 -14 134.5 4.0Q93 22 68.5 57.0Q44 92 44 142Q44 193 68.5 226.5Q93 260 135.5 277.0Q178 294 232 294H382V326Q382 369 356.0 395.0Q330 421 276 421Q223 421 195.0 396.0Q167 371 158 331L62 362Q74 402 100.5 434.5Q127 467 171.0 487.0Q215 507 277 507Q373 507 428.0 458.0Q483 409 483 319V116Q483 86 511 86H553V0H476Q441 0 419.0 18.0Q397 36 397 67V70H382Q374 55 358.0 35.0Q342 15 311.0 0.5Q280 -14 229 -14ZM244 71Q306 71 344.0 106.5Q382 142 382 204V214H238Q197 214 172.0 196.5Q147 179 147 145Q147 111 173.0 91.0Q199 71 244 71Z"/>
    <path transform="translate(539.728 98) scale(0.072000 -0.072000)" d="M76 0V493H179V0ZM128 560Q98 560 77.5 579.5Q57 599 57 630Q57 661 77.5 680.5Q98 700 128 700Q159 700 179.0 680.5Q199 661 199 630Q199 599 179.0 579.5Q159 560 128 560Z"/>
    <path transform="translate(556.660 98) scale(0.072000 -0.072000)" d="M76 0V493H177V419H193Q207 449 243.0 475.0Q279 501 350 501Q406 501 449.5 476.0Q493 451 518.0 405.5Q543 360 543 296V0H440V288Q440 352 408.0 382.5Q376 413 320 413Q256 413 217.5 371.0Q179 329 179 249V0Z"/>
  </g>
</svg>
